<?xml version="1.0" standalone="no"?>
<!DOCTYPE svg PUBLIC "-//W3C//DTD SVG 20010904//EN"
 "http://www.w3.org/TR/2001/REC-SVG-20010904/DTD/svg10.dtd">
<svg version="1.0" xmlns="http://www.w3.org/2000/svg"
 width="1023.000000pt" height="1023.000000pt" viewBox="0 0 1023.000000 1023.000000"
 preserveAspectRatio="xMidYMid meet">
<metadata>
Created by potrace 1.11, written by Peter Selinger 2001-2013
</metadata>
<g transform="translate(0.000000,1023.000000) scale(0.100000,-0.100000)"
fill="#000000" stroke="none">
<path d="M688 10070 c-6 -30 -1 -3378 6 -3495 8 -139 19 -282 31 -390 9 -81
35 -281 39 -301 5 -23 11 -64 21 -129 3 -23 8 -52 10 -65 3 -14 8 -38 10 -55
5 -26 29 -160 41 -221 8 -44 64 -290 73 -324 5 -19 17 -64 26 -100 77 -304
250 -828 345 -1045 10 -22 30 -69 45 -105 82 -193 214 -469 297 -620 17 -30
44 -80 61 -110 52 -96 177 -301 255 -420 70 -106 239 -348 252 -360 3 -3 34
-43 70 -90 226 -298 530 -624 840 -901 483 -433 1040 -802 1669 -1107 l195
-94 62 30 62 31 36 -79 36 -79 48 20 c159 69 614 310 798 424 18 11 54 33 81
49 281 170 704 491 1003 761 63 56 394 388 456 455 179 196 382 451 541 675
79 112 273 411 273 422 0 3 6 14 14 22 19 22 191 332 259 466 58 115 167 344
167 351 0 2 11 27 24 57 38 81 110 261 151 372 20 55 40 109 45 120 50 117
214 670 266 895 48 213 106 508 120 610 2 19 6 46 9 60 8 44 20 122 30 209 3
23 7 55 9 70 3 14 7 55 11 91 4 36 8 81 10 100 2 19 7 73 10 120 4 47 9 108
12 135 10 97 9 3495 -2 3496 -5 1 -55 3 -110 4 -129 3 -126 3 -124 18 1 6 1
19 0 27 -1 13 -477 15 -4290 15 -3814 0 -4290 -2 -4293 -15z"/>
</g>
</svg>
